<?xml version="1.0" encoding="UTF-8"?>
<svg version="1.1" xmlns="http://www.w3.org/2000/svg" width="98" height="96">
<path d="M0 0 C10.85982243 7.3859311 18.54155188 17.88381347 21.3125 30.875 C22.20429932 41.5335395 22.38590748 52.23552578 17.3125 61.875 C16.9 62.720625 16.4875 63.56625 16.0625 64.4375 C9.56379413 76.54872458 -1.20793688 83.56738265 -13.9453125 88.01171875 C-28.36367153 91.33787464 -42.68036708 89.14645968 -55.375 81.75 C-66.23482243 74.3640689 -73.91655188 63.86618653 -76.6875 50.875 C-77.57929932 40.2164605 -77.76090748 29.51447422 -72.6875 19.875 C-72.275 19.029375 -71.8625 18.18375 -71.4375 17.3125 C-64.93879413 5.20127542 -54.16706312 -1.81738265 -41.4296875 -6.26171875 C-27.01132847 -9.58787464 -12.69463292 -7.39645968 0 0 Z M-33.796875 19.84375 C-34.55097656 20.24980469 -35.30507813 20.65585937 -36.08203125 21.07421875 C-36.85933594 21.50347656 -37.63664062 21.93273437 -38.4375 22.375 C-39.23027344 22.80425781 -40.02304687 23.23351562 -40.83984375 23.67578125 C-42.79321989 24.7348406 -44.74208609 25.80140563 -46.6875 26.875 C-46.6875 27.535 -46.6875 28.195 -46.6875 28.875 C-43.99380764 30.42290819 -41.28069663 31.93310335 -38.5625 33.4375 C-37.42167969 34.09395508 -37.42167969 34.09395508 -36.2578125 34.76367188 C-32.88036497 36.61253324 -30.51857499 37.86651964 -26.625 37.90625 C-22.79337667 36.56110564 -19.34849095 34.79635539 -15.8125 32.8125 C-14.77996094 32.24692383 -14.77996094 32.24692383 -13.7265625 31.66992188 C-12.0425787 30.74606965 -10.36442533 29.81160333 -8.6875 28.875 C-8.6875 28.215 -8.6875 27.555 -8.6875 26.875 C-11.43022401 25.3614028 -14.18275633 23.86659291 -16.9375 22.375 C-17.71480469 21.94574219 -18.49210937 21.51648438 -19.29296875 21.07421875 C-20.04707031 20.66816406 -20.80117188 20.26210938 -21.578125 19.84375 C-22.26938477 19.46669922 -22.96064453 19.08964844 -23.67285156 18.70117188 C-27.59790673 17.09157582 -30.29089524 17.9313974 -33.796875 19.84375 Z M-48.6875 34.875 C-48.6875 41.475 -48.6875 48.075 -48.6875 54.875 C-45.903125 56.36 -43.11875 57.845 -40.25 59.375 C-38.93237671 60.07979492 -38.93237671 60.07979492 -37.58813477 60.79882812 C-36.90033936 61.16427734 -36.21254395 61.52972656 -35.50390625 61.90625 C-34.79693604 62.28330078 -34.08996582 62.66035156 -33.36157227 63.04882812 C-31.84918224 63.94875864 -31.84918224 63.94875864 -30.6875 63.875 C-30.6875 57.275 -30.6875 50.675 -30.6875 43.875 C-34.585625 41.6475 -34.585625 41.6475 -38.5625 39.375 C-39.37960449 38.90513672 -40.19670898 38.43527344 -41.03857422 37.95117188 C-41.6832666 37.58572266 -42.32795898 37.22027344 -42.9921875 36.84375 C-43.65202637 36.46669922 -44.31186523 36.08964844 -44.99169922 35.70117188 C-46.67277146 34.7290084 -46.67277146 34.7290084 -48.6875 34.875 Z M-10.72265625 36.0625 C-11.53154297 36.51367188 -12.34042969 36.96484375 -13.17382812 37.4296875 C-14.02396484 37.90664063 -14.87410156 38.38359375 -15.75 38.875 C-16.60400391 39.35195313 -17.45800781 39.82890625 -18.33789062 40.3203125 C-20.45548096 41.50332386 -22.57162478 42.6889238 -24.6875 43.875 C-24.6875 50.475 -24.6875 57.075 -24.6875 63.875 C-21.55837533 62.62335013 -18.97376875 61.57358563 -16.13671875 59.9296875 C-15.58072998 59.60983887 -15.02474121 59.28999023 -14.4519043 58.96044922 C-13.76652588 58.56100098 -13.08114746 58.16155273 -12.375 57.75 C-9.0646875 55.831875 -9.0646875 55.831875 -5.6875 53.875 C-5.6875 47.275 -5.6875 40.675 -5.6875 33.875 C-7.54521493 33.875 -9.14052925 35.17739399 -10.72265625 36.0625 Z " fill="#E5D4DB" transform="translate(76.6875,7.125)"/>
<path d="M0 0 C1.98 0.99 1.98 0.99 4 2 C3.34 2 2.68 2 2 2 C2 8.6 2 15.2 2 22 C1.34 21.67 0.68 21.34 0 21 C0 14.07 0 7.14 0 0 Z " fill="#000000" transform="translate(26,40)"/>
<path d="M0 0 C0.66 0.33 1.32 0.66 2 1 C-3.33333333 6.33333333 -8.66666667 11.66666667 -14 17 C-12.64966431 13.06036084 -10.92243529 10.44690063 -8.125 7.375 C-7.44695313 6.61960937 -6.76890625 5.86421875 -6.0703125 5.0859375 C-4.15512455 3.1562953 -2.21927871 1.56245183 0 0 Z " fill="#403C3E" transform="translate(20,8)"/>
</svg>
