<?xml version="1.0" encoding="UTF-8"?>
<svg version="1.1" xmlns="http://www.w3.org/2000/svg" width="98" height="96">
<path d="M0 0 C8.9597679 6.06368131 15.28634539 13.85003671 19.3125 23.875 C19.85970703 25.17630859 19.85970703 25.17630859 20.41796875 26.50390625 C23.10170608 36.6177286 23.06855632 50.91981308 18.703125 60.49609375 C10.86825704 73.89899989 0.59303646 83.87426189 -14.5847168 88.4465332 C-25.60423181 90.69188893 -39.79092237 90.36947555 -49.6875 84.875 C-50.60402344 84.38902344 -51.52054688 83.90304688 -52.46484375 83.40234375 C-64.03666645 76.68782934 -71.45018204 67.23233603 -75.79296875 54.6796875 C-78.81898751 41.80919724 -77.79504475 27.32730856 -70.921875 15.953125 C-54.6520269 -7.74704743 -24.83310386 -14.46887456 0 0 Z M-50.6875 26.875 C-52.21414487 31.4549346 -51.8719271 36.01571028 -51.875 40.8125 C-51.88724609 41.81474609 -51.89949219 42.81699219 -51.91210938 43.84960938 C-51.91404297 44.81576172 -51.91597656 45.78191406 -51.91796875 46.77734375 C-51.92207764 47.65898193 -51.92618652 48.54062012 -51.93041992 49.44897461 C-51.66861012 52.06365198 -51.09380804 53.66676559 -49.6875 55.875 C-45.76060581 57.8384471 -40.88843067 57.32546961 -36.5625 57.5 C-35.48331299 57.54358643 -34.40412598 57.58717285 -33.29223633 57.63208008 C-18.38343698 58.85588305 -18.38343698 58.85588305 -4.6875 54.875 C-3.16085513 50.2950654 -3.5030729 45.73428972 -3.5 40.9375 C-3.48163086 39.43413086 -3.48163086 39.43413086 -3.46289062 37.90039062 C-3.46095703 36.93423828 -3.45902344 35.96808594 -3.45703125 34.97265625 C-3.45292236 34.09101807 -3.44881348 33.20937988 -3.44458008 32.30102539 C-3.70638988 29.68634802 -4.28119196 28.08323441 -5.6875 25.875 C-15.02719275 21.20515363 -42.02675587 21.10117058 -50.6875 26.875 Z " fill="#E5D4DC" transform="translate(76.6875,7.125)"/>
<path d="M0 0 C4.17437899 1.39145966 7.19196096 2.50446237 10.875 4.625 C12.04675781 5.29402344 12.04675781 5.29402344 13.2421875 5.9765625 C14.11230469 6.48316406 14.11230469 6.48316406 15 7 C12.61753661 9.68125418 10.1454496 11.11423459 6.9375 12.6875 C5.62072266 13.34298828 5.62072266 13.34298828 4.27734375 14.01171875 C2 15 2 15 0 15 C0 10.05 0 5.1 0 0 Z " fill="#000000" transform="translate(43,40)"/>
<path d="M0 0 C4.23429756 1.31061591 8.07407404 2.94356259 12 5 C8.87511433 7.52394612 5.68685613 9.39701907 2 11 C1.34 10.67 0.68 10.34 0 10 C0 6.7 0 3.4 0 0 Z " fill="#FDEBF3" transform="translate(44,42)"/>
</svg>
